<?xml version="1.0" encoding="UTF-8" standalone="no"?>
<!-- Created with Inkscape (http://www.inkscape.org/) -->

<svg
   width="210mm"
   height="297mm"
   viewBox="0 0 210 297"
   version="1.1"
   id="svg1"
   xml:space="preserve"
   inkscape:version="1.4 (e7c3feb1, 2024-10-09)"
   sodipodi:docname="PhraseChain.svg"
   xmlns:inkscape="http://www.inkscape.org/namespaces/inkscape"
   xmlns:sodipodi="http://sodipodi.sourceforge.net/DTD/sodipodi-0.dtd"
   xmlns:xlink="http://www.w3.org/1999/xlink"
   xmlns="http://www.w3.org/2000/svg"
   xmlns:svg="http://www.w3.org/2000/svg"><sodipodi:namedview
     id="namedview1"
     pagecolor="#ffffff"
     bordercolor="#999999"
     borderopacity="1"
     inkscape:showpageshadow="0"
     inkscape:pageopacity="0"
     inkscape:pagecheckerboard="0"
     inkscape:deskcolor="#d1d1d1"
     inkscape:document-units="mm"
     inkscape:zoom="2.2959558"
     inkscape:cx="381.32267"
     inkscape:cy="537.24902"
     inkscape:window-width="2560"
     inkscape:window-height="1382"
     inkscape:window-x="1080"
     inkscape:window-y="262"
     inkscape:window-maximized="0"
     inkscape:current-layer="layer1" /><defs
     id="defs1"><linearGradient
       id="linearGradient904"
       inkscape:collect="always"><stop
         style="stop-color:#f2b146;stop-opacity:1;"
         offset="0.0704"
         id="stop904" /><stop
         style="stop-color:#79bc40;stop-opacity:1;"
         offset="0.32639998"
         id="stop906" /><stop
         style="stop-color:#50afaa;stop-opacity:1;"
         offset="0.6656"
         id="stop907" /><stop
         style="stop-color:#6a80f7;stop-opacity:1;"
         offset="0.95200002"
         id="stop905" /></linearGradient><linearGradient
       inkscape:collect="always"
       xlink:href="#linearGradient904"
       id="linearGradient905"
       x1="65.505836"
       y1="156.62263"
       x2="148.9171"
       y2="135.68069"
       gradientUnits="userSpaceOnUse" /></defs><g
     inkscape:label="Layer 1"
     inkscape:groupmode="layer"
     id="layer1"><path
       id="path903"
       style="-inkscape-font-specification:'Montserrat Heavy';fill:url(#linearGradient905);fill-opacity:1;stroke-linejoin:round"
       d="m 68.505896,134.77369 c -2.113355,0.0161 -4.359152,0.44477 -6.396509,1.56011 -1.864413,1.02068 -3.468964,2.53262 -4.566646,4.40231 -1.129947,1.92464 -1.641335,4.10178 -1.652096,6.21874 -0.01102,2.15589 0.498555,4.36291 1.607654,6.31641 1.053864,1.85622 2.60435,3.42031 4.47828,4.47673 2.247763,1.26716 4.461287,1.27877 5.797062,1.52756 2.022359,0.37667 5.417757,0.69711 5.417757,0.69711 h 0.0041 l 2.675806,0.23823 -0.02377,-0.004 c 0.26505,0.034 0.308167,-0.0114 0.447518,-0.0408 0.139351,-0.0294 0.301814,-0.0701 0.484208,-0.11937 0.364787,-0.0985 0.807482,-0.23004 1.240234,-0.36328 0.794264,-0.24453 1.429454,-0.45276 1.548743,-0.49196 l 4.527372,0.72243 c 0.08574,0.014 0.07602,0.007 0.0956,0.008 0.01958,8.6e-4 0.03881,0.001 0.06253,0.002 0.04743,0.001 0.109073,0.003 0.183968,0.004 0.149789,0.002 0.353602,0.003 0.595313,0.004 0.483423,0.002 1.116021,0.003 1.744079,0.004 1.256116,0.001 2.49649,0 2.496489,0 0.09508,-8e-5 0.188772,-0.0228 0.273368,-0.0661 0.361735,-0.18563 0.591136,-0.52705 0.841809,-0.84181 l 2.654102,0.78858 c 0.263084,0.0785 0.536037,0.11899 0.810803,0.11937 h 0.0016 4.898926 c 0.124476,-1.2e-4 0.245835,-0.0389 0.347265,-0.1111 0.106299,-0.0759 0.180833,-0.18598 0.275436,-0.27544 l 0.09767,0.0527 h 0.0021 c 0.412102,0.2192 0.871133,0.33384 1.337903,0.33383 h 5.02553 c 2.1026,-2.3e-4 2.2383,-2.10399 2.75591,-2.09017 h 1.5446 c 0.49199,-0.0176 0.67207,2.08961 2.75384,2.08984 h 5.21519 c 0.47819,-5.4e-4 0.94957,-0.12122 1.36891,-0.3514 l 0.0196,-0.0103 c 0.14299,0.15918 0.33989,0.36173 0.6718,0.36173 h 4.8984 c 0.27817,-5e-5 0.55558,-0.0411 0.82218,-0.12144 l 1.65623,-0.49816 c 0.16869,0.18403 0.31358,0.39095 0.52555,0.52555 0.0964,0.0612 0.20826,0.0937 0.32246,0.0935 h 4.45657 0.002 c 0.18786,-4.8e-4 0.3741,-0.0188 0.55862,-0.0563 l 3.63699,-0.47646 c 0.14429,0.0957 0.26182,0.22755 0.44493,0.30076 0.33798,0.13514 0.74396,0.23218 1.18598,0.23203 h 4.09742 0.002 c 0.13034,-5.9e-4 0.26284,-0.01 0.39429,-0.0289 l 7.28328,-1.02371 c 1.402,-0.19684 2.45205,-1.40424 2.45308,-2.81998 v -18.05265 c -1.7e-4,-1.5668 -1.28264,-2.84979 -2.84944,-2.84995 h -5.40794 c -0.56954,1e-4 -1.12625,0.17102 -1.59784,0.4904 l -2.46858,1.66967 -0.80874,-1.04851 v -5.2e-4 -5.2e-4 -5.1e-4 -5.2e-4 c -0.53936,-0.70014 -1.37394,-1.1096 -2.25774,-1.10949 h -4.99608 c -0.77305,-7.4e-4 -1.51356,0.31149 -2.05103,0.86713 l -0.32401,0.33589 c -0.3762,-0.5458 -0.86556,-1.00138 -1.52343,-1.18132 -0.0515,-0.0142 -0.10469,-0.0215 -0.15813,-0.0217 h -5.97483 c -1.04285,-1.9e-4 -2.00499,0.57036 -2.50372,1.48621 l -2.3244,4.27364 c -0.19254,0.35409 -0.26244,0.75417 -0.29301,1.15445 l -2.08979,-5.1387 c -0.43609,-1.07228 -1.4831,-1.77544 -2.64067,-1.7756 h -6.12883 c -1.14375,4.4e-4 -2.18036,0.68675 -2.62516,1.74046 l -2.28306,5.40794 v -0.0274 c 1.3e-4,-0.48458 -0.12368,-0.96068 -0.35915,-1.38441 l -2.375567,-4.27158 c -0.502432,-0.9034 -1.458119,-1.46514 -2.491838,-1.46502 h -5.974829 c -1.198873,1.2e-4 -2.036176,0.84955 -2.455147,1.90427 l -1.161569,-1.1128 c -0.530393,-0.5081 -1.236461,-0.79111 -1.970939,-0.79116 h -5.974829 c -1.312272,1.3e-4 -2.251002,0.98226 -2.578137,2.19521 -0.803756,-0.52055 -1.609935,-1.07331 -2.503723,-1.44126 -1.519741,-0.62564 -3.290799,-1.15544 -5.251876,-1.14049 z"
       sodipodi:nodetypes="ssscsssccccsssccccsscccccsccccccccccccccscccscccccscccccccccccccccccccccccccccccccscccccccccss"
       inkscape:export-filename="PhraseChainIcon.svg"
       inkscape:export-xdpi="600"
       inkscape:export-ydpi="600" /><path
       id="path900"
       style="-inkscape-font-specification:'Montserrat Heavy';fill:#222222;fill-opacity:1;stroke-linejoin:round"
       d="m 68.509513,135.37313 c -2.035289,0.0155 -4.180238,0.42909 -6.111255,1.48622 -1.77225,0.97022 -3.297862,2.41046 -4.337719,4.18165 -1.069853,1.82228 -1.560168,3.89594 -1.570447,5.91799 -0.01053,2.05901 0.477436,4.16239 1.529622,6.01565 1.000362,1.76198 2.475474,3.2484 4.251937,4.24987 2.10179,1.18487 4.175299,1.19348 5.611027,1.46089 1.962322,0.36549 5.365564,0.68937 5.365564,0.68937 l 2.675547,0.23768 c 0.32552,0.0417 3.595905,-1.03613 3.595905,-1.03613 l 4.672842,0.74489 c 0.119419,0.0195 5.081085,0.0147 5.081085,0.0147 0.418821,-0.21493 0.759688,-0.5558 0.974617,-0.97462 l 2.966744,0.88057 c 0.207777,0.062 0.423431,0.0937 0.640271,0.094 h 4.898409 c 0.201478,-0.14391 0.377825,-0.32008 0.521932,-0.52141 l 0.482141,0.25786 c 0.325365,0.17306 0.688255,0.26356 1.056785,0.26355 h 5.02553 c 1.24258,-1.3e-4 2.19325,-1.69745 2.33579,-2.08979 h 2.38848 c 0.10941,0.3909 1.08751,2.08966 2.33009,2.08979 h 5.21519 c 0.37759,-4.2e-4 0.749,-0.0958 1.08003,-0.2775 l 0.45476,-0.24805 c 0.14484,0.2031 0.27609,0.52555 0.52555,0.52555 h 4.8984 c 0.21969,-4e-5 0.43819,-0.0322 0.64854,-0.0956 l 1.98438,-0.5979 c 0.17737,0.27934 0.41416,0.51613 0.6935,0.6935 h 4.45657 c 0.1484,-3.8e-4 0.2964,-0.0154 0.44184,-0.045 l 3.85343,-0.50759 c 0.17614,0.2288 0.835,0.55279 1.53332,0.55255 h 4.09742 c 0.10463,-4.7e-4 0.20909,-0.008 0.31264,-0.0232 l 7.28328,-1.02371 c 1.11037,-0.1559 1.93654,-1.10548 1.93735,-2.22674 v -18.05265 c -1.3e-4,-1.24258 -1.00741,-2.24986 -2.24999,-2.24999 h -5.40846 c -0.4497,8e-5 -0.88907,0.13489 -1.26142,0.38706 l -2.93574,1.98799 -1.15238,-1.4981 c -0.42606,-0.55306 -1.0847,-0.87703 -1.78284,-0.87695 h -4.99608 c -0.61052,-5.8e-4 -1.19507,0.24693 -1.61954,0.68575 l -0.86092,0.89038 c -0.21008,-0.76709 -0.80949,-1.3663 -1.57665,-1.57613 h -5.97432 c -0.82417,-1.5e-4 -1.58247,0.45028 -1.97662,1.17409 l -2.3244,4.27312 c -0.17929,0.32972 -0.27327,0.69905 -0.27337,1.07436 v 2.7342 l -3.19309,-7.85327 c -0.34482,-0.84785 -1.16882,-1.40237 -2.08411,-1.4025 h -6.12883 c -0.9043,3.5e-4 -1.72054,0.542 -2.07222,1.37511 l -3.43597,8.13697 v -2.99051 c 1.1e-4,-0.38264 -0.0973,-0.75899 -0.28318,-1.09348 l -2.376602,-4.27157 c -0.397063,-0.71394 -1.149875,-1.15661 -1.966805,-1.15652 h -5.974829 c -1.242582,1.3e-4 -2.249862,1.00741 -2.249992,2.24999 v 0.0822 l -1.781287,-1.70687 C 85.952113,135.9836 85.3945,135.7596 84.814471,135.75956 h -5.974829 c -1.242582,1.3e-4 -2.249862,1.00741 -2.249992,2.24999 v 0.22686 c -1.004745,-0.64517 -2.017252,-1.33847 -3.060278,-1.76785 -1.477939,-0.60843 -3.169925,-1.10964 -5.019849,-1.09554 z"
       sodipodi:nodetypes="ccccccccccccccccccccccccccccccccccccccccccccccccccccccccccccccccccccccccccc" /><path
       id="path716"
       style="font-weight:900;font-size:21.1183px;line-height:1.25;font-family:Montserrat;-inkscape-font-specification:'Montserrat Heavy';text-align:center;letter-spacing:1.51342px;text-orientation:upright;text-anchor:middle;fill:#fff8f6;fill-opacity:1;stroke:none;stroke-width:0;stroke-dasharray:none"
       d="m 68.525974,137.6226 c -1.871381,0 -3.554024,0.40364 -5.047695,1.21057 -1.476503,0.80692 -2.635407,1.92248 -3.47667,3.34748 -0.841263,1.40783 -1.261609,3.00505 -1.261609,4.79058 0,1.80271 0.411677,3.43335 1.235772,4.89268 0.824094,1.44217 1.957623,2.5757 3.399789,3.39978 1.459333,0.80693 3.098634,1.20994 4.918509,1.20994 1.390659,0 2.789761,-0.32624 4.19759,-0.97865 1.424995,-0.66959 2.643951,-1.56229 3.6569,-2.67825 L 72.697727,149.134 c -0.583734,0.63524 -1.252945,1.1503 -2.008365,1.54518 -0.738252,0.37771 -1.433468,0.56652 -2.085877,0.56652 -0.703913,0 -1.34775,-0.18881 -1.931484,-0.56652 -0.566564,-0.37771 -1.012915,-0.89277 -1.33912,-1.54518 -0.309034,-0.66958 -0.463807,-1.41618 -0.463807,-2.24027 0,-0.8241 0.154773,-1.56266 0.463807,-2.21507 0.326205,-0.65241 0.772556,-1.15881 1.33912,-1.51935 0.583734,-0.37771 1.227571,-0.56653 1.931484,-0.56653 0.703915,0 1.424507,0.23216 2.162758,0.69572 0.755421,0.44638 1.399256,1.03821 1.931484,1.77646 l 3.450833,-4.09424 c -0.927107,-1.01295 -2.086012,-1.82023 -3.476671,-2.42113 -1.390659,-0.61808 -2.772425,-0.92699 -4.145915,-0.92699 z m 10.31406,0.3863 v 18.0526 h 5.97468 v -6.51537 h 5.588385 v 6.51537 h 5.974681 v -18.0526 h -5.974681 v 7.00501 h -5.588385 v -7.00501 z m 27.671576,0 -7.622587,18.0526 h 6.129077 l 0.92699,-2.54905 h 6.7731 l 0.90178,2.54905 h 6.36098 l -7.33964,-18.0526 z m 15.97996,0 v 18.0526 h 5.97467 v -18.0526 z m 10.0311,0 v 18.0526 h 5.434 v -9.21944 l 7.10774,9.21944 h 4.99601 v -18.0526 h -5.40816 v 9.27113 l -7.13356,-9.27113 z m -23.12675,5.94884 1.8546,5.27961 h -3.76026 z"
       sodipodi:nodetypes="sccsccsccccsccsccsccccscccccccccccccccccccccccccccccccccccccccccc" /><g
       id="g423"><path
         d="M 74.7023 146.412 L 74.7023 146.412"
         style="fill:none;stroke:#000000;stroke-opacity:1;stroke-width:1px"
         id="path365" /><path
         d="M 73.1185 144.955 L 73.1185 144.955"
         style="fill:none;stroke:#000000;stroke-opacity:1;stroke-width:1px"
         id="path366" /><path
         d="M 71.3445 144.385 L 71.3445 144.385"
         style="fill:none;stroke:#000000;stroke-opacity:1;stroke-width:1px"
         id="path367" /><path
         d="M 69.7606 144.849 L 69.7606 144.849"
         style="fill:none;stroke:#000000;stroke-opacity:1;stroke-width:1px"
         id="path368" /><path
         d="M 68.6625 146.095 L 68.6625 146.095"
         style="fill:none;stroke:#000000;stroke-opacity:1;stroke-width:1px"
         id="path369" /><path
         d="M 68.2824 147.911 L 68.2824 147.911"
         style="fill:none;stroke:#000000;stroke-opacity:1;stroke-width:1px"
         id="path370" /><path
         d="M 68.6625 149.749 L 68.6625 149.749"
         style="fill:none;stroke:#000000;stroke-opacity:1;stroke-width:1px"
         id="path371" /><path
         d="M 69.7606 151.016 L 69.7606 151.016"
         style="fill:none;stroke:#000000;stroke-opacity:1;stroke-width:1px"
         id="path372" /><path
         d="M 71.3445 151.48 L 71.3445 151.48"
         style="fill:none;stroke:#000000;stroke-opacity:1;stroke-width:1px"
         id="path373" /><path
         d="M 73.0551 151.016 L 73.0551 151.016"
         style="fill:none;stroke:#000000;stroke-opacity:1;stroke-width:1px"
         id="path374" /><path
         d="M 74.7023 149.749 L 74.7023 149.749"
         style="fill:none;stroke:#000000;stroke-opacity:1;stroke-width:1px"
         id="path375" /><path
         d="M 77.5322 152.769 L 77.5322 152.769"
         style="fill:none;stroke:#000000;stroke-opacity:1;stroke-width:1px"
         id="path376" /><path
         d="M 74.5334 154.965 L 74.5334 154.965"
         style="fill:none;stroke:#000000;stroke-opacity:1;stroke-width:1px"
         id="path377" /><path
         d="M 71.0911 155.767 L 71.0911 155.767"
         style="fill:none;stroke:#000000;stroke-opacity:1;stroke-width:1px"
         id="path378" /><path
         d="M 67.0575 154.775 L 67.0575 154.775"
         style="fill:none;stroke:#000000;stroke-opacity:1;stroke-width:1px"
         id="path379" /><path
         d="M 64.2699 151.987 L 64.2699 151.987"
         style="fill:none;stroke:#000000;stroke-opacity:1;stroke-width:1px"
         id="path380" /><path
         d="M 63.2562 147.975 L 63.2562 147.975"
         style="fill:none;stroke:#000000;stroke-opacity:1;stroke-width:1px"
         id="path381" /><path
         d="M 64.291 144.047 L 64.291 144.047"
         style="fill:none;stroke:#000000;stroke-opacity:1;stroke-width:1px"
         id="path382" /><path
         d="M 67.142 141.301 L 67.142 141.301"
         style="fill:none;stroke:#000000;stroke-opacity:1;stroke-width:1px"
         id="path383" /><path
         d="M 71.2812 140.309 L 71.2812 140.309"
         style="fill:none;stroke:#000000;stroke-opacity:1;stroke-width:1px"
         id="path384" /><path
         d="M 74.6812 141.069 L 74.6812 141.069"
         style="fill:none;stroke:#000000;stroke-opacity:1;stroke-width:1px"
         id="path385" /><path
         d="M 77.5322 143.054 L 77.5322 143.054"
         style="fill:none;stroke:#000000;stroke-opacity:1;stroke-width:1px"
         id="path386" /><path
         d="M 154.441 287.038 L 154.441 287.038"
         style="fill:none;stroke:#000000;stroke-opacity:1;stroke-width:1px"
         id="path387" /><path
         d="M 84.6386 140.626 L 84.6386 140.626"
         style="fill:none;stroke:#000000;stroke-opacity:1;stroke-width:1px"
         id="path388" /><path
         d="M 84.6386 146.37 L 84.6386 146.37"
         style="fill:none;stroke:#000000;stroke-opacity:1;stroke-width:1px"
         id="path389" /><path
         d="M 89.2213 146.37 L 89.2213 146.37"
         style="fill:none;stroke:#000000;stroke-opacity:1;stroke-width:1px"
         id="path390" /><path
         d="M 89.2213 140.626 L 89.2213 140.626"
         style="fill:none;stroke:#000000;stroke-opacity:1;stroke-width:1px"
         id="path391" /><path
         d="M 94.1207 140.626 L 94.1207 140.626"
         style="fill:none;stroke:#000000;stroke-opacity:1;stroke-width:1px"
         id="path392" /><path
         d="M 94.1207 155.43 L 94.1207 155.43"
         style="fill:none;stroke:#000000;stroke-opacity:1;stroke-width:1px"
         id="path393" /><path
         d="M 89.2213 155.43 L 89.2213 155.43"
         style="fill:none;stroke:#000000;stroke-opacity:1;stroke-width:1px"
         id="path394" /><path
         d="M 89.2213 150.087 L 89.2213 150.087"
         style="fill:none;stroke:#000000;stroke-opacity:1;stroke-width:1px"
         id="path395" /><path
         d="M 84.6386 150.087 L 84.6386 150.087"
         style="fill:none;stroke:#000000;stroke-opacity:1;stroke-width:1px"
         id="path396" /><path
         d="M 84.6386 155.43 L 84.6386 155.43"
         style="fill:none;stroke:#000000;stroke-opacity:1;stroke-width:1px"
         id="path397" /><path
         d="M 79.7392 155.43 L 79.7392 155.43"
         style="fill:none;stroke:#000000;stroke-opacity:1;stroke-width:1px"
         id="path398" /><path
         d="M 182.962 301.841 L 182.962 301.841"
         style="fill:none;stroke:#000000;stroke-opacity:1;stroke-width:1px"
         id="path399" /><path
         d="M 182.223 299.751 L 182.223 299.751"
         style="fill:none;stroke:#000000;stroke-opacity:1;stroke-width:1px"
         id="path400" /><path
         d="M 101.966 153.339 L 101.966 153.339"
         style="fill:none;stroke:#000000;stroke-opacity:1;stroke-width:1px"
         id="path401" /><path
         d="M 101.206 155.43 L 101.206 155.43"
         style="fill:none;stroke:#000000;stroke-opacity:1;stroke-width:1px"
         id="path402" /><path
         d="M 96.1799 155.43 L 96.1799 155.43"
         style="fill:none;stroke:#000000;stroke-opacity:1;stroke-width:1px"
         id="path403" /><path
         d="M 102.431 140.626 L 102.431 140.626"
         style="fill:none;stroke:#000000;stroke-opacity:1;stroke-width:1px"
         id="path404" /><path
         d="M 107.457 140.626 L 107.457 140.626"
         style="fill:none;stroke:#000000;stroke-opacity:1;stroke-width:1px"
         id="path405" /><path
         d="M 113.476 155.43 L 113.476 155.43"
         style="fill:none;stroke:#000000;stroke-opacity:1;stroke-width:1px"
         id="path406" /><path
         d="M 177.936 296.245 L 177.936 296.245"
         style="fill:none;stroke:#000000;stroke-opacity:1;stroke-width:1px"
         id="path407" /><path
         d="M 106.317 149.833 L 106.317 149.833"
         style="fill:none;stroke:#000000;stroke-opacity:1;stroke-width:1px"
         id="path408" /><path
         d="M 104.796 145.504 L 104.796 145.504"
         style="fill:none;stroke:#000000;stroke-opacity:1;stroke-width:1px"
         id="path409" /><path
         d="M 190.237 287.038 L 190.237 287.038"
         style="fill:none;stroke:#000000;stroke-opacity:1;stroke-width:1px"
         id="path410" /><path
         d="M 120.434 140.626 L 120.434 140.626"
         style="fill:none;stroke:#000000;stroke-opacity:1;stroke-width:1px"
         id="path411" /><path
         d="M 120.434 155.43 L 120.434 155.43"
         style="fill:none;stroke:#000000;stroke-opacity:1;stroke-width:1px"
         id="path412" /><path
         d="M 115.535 155.43 L 115.535 155.43"
         style="fill:none;stroke:#000000;stroke-opacity:1;stroke-width:1px"
         id="path413" /><path
         d="M 208.41 287.038 L 208.41 287.038"
         style="fill:none;stroke:#000000;stroke-opacity:1;stroke-width:1px"
         id="path414" /><path
         d="M 138.142 140.626 L 138.142 140.626"
         style="fill:none;stroke:#000000;stroke-opacity:1;stroke-width:1px"
         id="path415" /><path
         d="M 138.142 155.43 L 138.142 155.43"
         style="fill:none;stroke:#000000;stroke-opacity:1;stroke-width:1px"
         id="path416" /><path
         d="M 134.045 155.43 L 134.045 155.43"
         style="fill:none;stroke:#000000;stroke-opacity:1;stroke-width:1px"
         id="path417" /><path
         d="M 128.217 147.869 L 128.217 147.869"
         style="fill:none;stroke:#000000;stroke-opacity:1;stroke-width:1px"
         id="path418" /><path
         d="M 128.217 155.43 L 128.217 155.43"
         style="fill:none;stroke:#000000;stroke-opacity:1;stroke-width:1px"
         id="path419" /><path
         d="M 123.761 155.43 L 123.761 155.43"
         style="fill:none;stroke:#000000;stroke-opacity:1;stroke-width:1px"
         id="path420" /><path
         d="M 123.761 140.626 L 123.761 140.626"
         style="fill:none;stroke:#000000;stroke-opacity:1;stroke-width:1px"
         id="path421" /><path
         d="M 127.858 140.626 L 127.858 140.626"
         style="fill:none;stroke:#000000;stroke-opacity:1;stroke-width:1px"
         id="path422" /><path
         d="M 133.707 148.228 L 133.707 148.228"
         style="fill:none;stroke:#000000;stroke-opacity:1;stroke-width:1px"
         id="path423" /></g><rect
       style="fill:#f2b146;fill-opacity:1;stroke:#f2b146;stroke-width:1.178;stroke-linecap:round;stroke-linejoin:round;stroke-dasharray:none;stroke-dashoffset:4.9;stroke-opacity:1;paint-order:stroke markers fill"
       id="rect932"
       width="9.7746763"
       height="9.7746763"
       x="71.492409"
       y="123.15776"
       rx="1.8285828"
       ry="1.8285828" /><text
       xml:space="preserve"
       style="font-size:8.46667px;line-height:1.25;font-family:sans-serif;text-align:center;letter-spacing:2.64583px;text-orientation:upright;text-anchor:middle;fill:#fff8f6;stroke-width:0.264583;fill-opacity:1"
       x="76.575188"
       y="131.01266"
       id="text934"><tspan
         sodipodi:role="line"
         id="tspan934"
         style="font-style:normal;font-variant:normal;font-weight:800;font-stretch:normal;font-size:8.46667px;font-family:Montserrat;-inkscape-font-specification:'Montserrat Ultra-Bold';fill:#fff8f6;stroke-width:0.264583;fill-opacity:1"
         x="77.898102"
         y="131.01266">P</tspan></text><rect
       style="fill:#afb843;fill-opacity:1;stroke:#afb843;stroke-width:1.178;stroke-linecap:round;stroke-linejoin:round;stroke-dasharray:none;stroke-dashoffset:4.9;stroke-opacity:1;paint-order:stroke markers fill"
       id="rect918"
       width="9.7746763"
       height="9.7746763"
       x="83.123924"
       y="123.15776"
       rx="1.8285828"
       ry="1.8285828" /><text
       xml:space="preserve"
       style="font-size:8.46667px;line-height:1.25;font-family:sans-serif;text-align:center;letter-spacing:2.64583px;text-orientation:upright;text-anchor:middle;fill:#fff8f6;stroke-width:0.264583;fill-opacity:1"
       x="88.011269"
       y="131.01266"
       id="text935"><tspan
         sodipodi:role="line"
         id="tspan935"
         style="font-style:normal;font-variant:normal;font-weight:800;font-stretch:normal;font-size:8.46667px;font-family:Montserrat;-inkscape-font-specification:'Montserrat Ultra-Bold';fill:#fff8f6;stroke-width:0.264583;fill-opacity:1"
         x="89.334183"
         y="131.01266">H</tspan></text><rect
       style="fill:#6eb85d;fill-opacity:1;stroke:#6eb85d;stroke-width:1.178;stroke-linecap:round;stroke-linejoin:round;stroke-dasharray:none;stroke-dashoffset:4.9;stroke-opacity:1;paint-order:stroke markers fill"
       id="rect919"
       width="9.7746763"
       height="9.7746763"
       x="94.75544"
       y="123.15776"
       rx="1.8285828"
       ry="1.8285828" /><text
       xml:space="preserve"
       style="font-size:8.46667px;line-height:1.25;font-family:sans-serif;text-align:center;letter-spacing:2.64583px;text-orientation:upright;text-anchor:middle;fill:#fff8f6;stroke-width:0.264583;fill-opacity:1"
       x="99.47345"
       y="131.01266"
       id="text936"><tspan
         sodipodi:role="line"
         id="tspan936"
         style="font-style:normal;font-variant:normal;font-weight:800;font-stretch:normal;font-size:8.46667px;font-family:Montserrat;-inkscape-font-specification:'Montserrat Ultra-Bold';fill:#fff8f6;stroke-width:0.264583;fill-opacity:1"
         x="100.79636"
         y="131.01266">R</tspan></text><rect
       style="fill:#57b198;fill-opacity:1;stroke:#57b198;stroke-width:1.178;stroke-linecap:round;stroke-linejoin:round;stroke-dasharray:none;stroke-dashoffset:4.9;stroke-opacity:1;paint-order:stroke markers fill"
       id="rect920"
       width="9.7746763"
       height="9.7746763"
       x="106.38696"
       y="123.15776"
       rx="1.8285828"
       ry="1.8285828" /><text
       xml:space="preserve"
       style="font-size:8.46667px;line-height:1.25;font-family:sans-serif;text-align:center;letter-spacing:2.64583px;text-orientation:upright;text-anchor:middle;fill:#fff8f6;stroke-width:0.264583;fill-opacity:1"
       x="111.27429"
       y="131.01266"
       id="text937"><tspan
         sodipodi:role="line"
         id="tspan937"
         style="font-style:normal;font-variant:normal;font-weight:800;font-stretch:normal;font-size:8.46667px;font-family:Montserrat;-inkscape-font-specification:'Montserrat Ultra-Bold';fill:#fff8f6;stroke-width:0.264583;fill-opacity:1"
         x="112.59721"
         y="131.01266">A</tspan></text><rect
       style="fill:#5c99ce;fill-opacity:1;stroke:#5c99ce;stroke-width:1.178;stroke-linecap:round;stroke-linejoin:round;stroke-dasharray:none;stroke-dashoffset:4.9;stroke-opacity:1;paint-order:stroke markers fill"
       id="rect921"
       width="9.7746763"
       height="9.7746763"
       x="118.01847"
       y="123.15776"
       rx="1.8285828"
       ry="1.8285828" /><text
       xml:space="preserve"
       style="font-size:8.46667px;line-height:1.25;font-family:sans-serif;text-align:center;letter-spacing:2.64583px;text-orientation:upright;text-anchor:middle;fill:#fff8f6;stroke-width:0.264583;fill-opacity:1"
       x="122.91851"
       y="131.0296"
       id="text938"><tspan
         sodipodi:role="line"
         id="tspan938"
         style="font-style:normal;font-variant:normal;font-weight:800;font-stretch:normal;font-size:8.46667px;font-family:Montserrat;-inkscape-font-specification:'Montserrat Ultra-Bold';fill:#fff8f6;stroke-width:0.264583;fill-opacity:1"
         x="124.24142"
         y="131.0296">S</tspan></text><rect
       style="fill:#6a80f7;fill-opacity:1;stroke:#6a80f7;stroke-width:1.178;stroke-linecap:round;stroke-linejoin:round;stroke-dasharray:none;stroke-dashoffset:4.9;stroke-opacity:1;paint-order:stroke markers fill"
       id="rect922"
       width="9.7746763"
       height="9.7746763"
       x="129.64998"
       y="123.15776"
       rx="1.8285828"
       ry="1.8285828" /><text
       xml:space="preserve"
       style="font-size:8.46667px;line-height:1.25;font-family:sans-serif;text-align:center;letter-spacing:2.64583px;text-orientation:upright;text-anchor:middle;fill:#fff8f6;stroke-width:0.264583;fill-opacity:1"
       x="134.46112"
       y="131.01266"
       id="text939"><tspan
         sodipodi:role="line"
         id="tspan939"
         style="font-style:normal;font-variant:normal;font-weight:800;font-stretch:normal;font-size:8.46667px;font-family:Montserrat;-inkscape-font-specification:'Montserrat Ultra-Bold';fill:#fff8f6;stroke-width:0.264583;fill-opacity:1"
         x="135.78404"
         y="131.01266">E</tspan></text><rect
       style="fill:#6a80f7;fill-opacity:1;stroke:#222222;stroke-width:2.5;stroke-linecap:round;stroke-linejoin:round;stroke-dasharray:none;stroke-dashoffset:4.9;stroke-opacity:1;paint-order:stroke markers fill"
       id="rect945"
       width="9.6800642"
       height="8.1819592"
       x="141.85904"
       y="98.644463"
       rx="2.5"
       ry="2.5" /></g></svg>
